<svg height="505" version="1.1" width="206.234375" xmlns="http://www.w3.org/2000/svg" xmlns:xlink="http://www.w3.org/1999/xlink" style="overflow: hidden; position: relative;" viewBox="0 0 206.234375 505" preserveAspectRatio="xMidYMid meet"><desc style="-webkit-tap-highlight-color: rgba(0, 0, 0, 0);">Created with Raphaël 2.1.4</desc><defs style="-webkit-tap-highlight-color: rgba(0, 0, 0, 0);"><path stroke-linecap="round" d="M5,0 0,2.5 5,5z" id="raphael-marker-block" style="-webkit-tap-highlight-color: rgba(0, 0, 0, 0);"></path><marker id="raphael-marker-endblock33-obj12" markerHeight="3" markerWidth="3" orient="auto" refX="1.5" refY="1.5" style="-webkit-tap-highlight-color: rgba(0, 0, 0, 0);"><use xlink:href="#raphael-marker-block" transform="rotate(180 1.5 1.5) scale(0.6,0.6)" stroke-width="1.6667" fill="black" stroke="none" style="-webkit-tap-highlight-color: rgba(0, 0, 0, 0);"></use></marker><marker id="raphael-marker-endblock33-obj13" markerHeight="3" markerWidth="3" orient="auto" refX="1.5" refY="1.5" style="-webkit-tap-highlight-color: rgba(0, 0, 0, 0);"><use xlink:href="#raphael-marker-block" transform="rotate(180 1.5 1.5) scale(0.6,0.6)" stroke-width="1.6667" fill="black" stroke="none" style="-webkit-tap-highlight-color: rgba(0, 0, 0, 0);"></use></marker><marker id="raphael-marker-endblock33-obj14" markerHeight="3" markerWidth="3" orient="auto" refX="1.5" refY="1.5" style="-webkit-tap-highlight-color: rgba(0, 0, 0, 0);"><use xlink:href="#raphael-marker-block" transform="rotate(180 1.5 1.5) scale(0.6,0.6)" stroke-width="1.6667" fill="black" stroke="none" style="-webkit-tap-highlight-color: rgba(0, 0, 0, 0);"></use></marker><marker id="raphael-marker-endblock33-obj15" markerHeight="3" markerWidth="3" orient="auto" refX="1.5" refY="1.5" style="-webkit-tap-highlight-color: rgba(0, 0, 0, 0);"><use xlink:href="#raphael-marker-block" transform="rotate(180 1.5 1.5) scale(0.6,0.6)" stroke-width="1.6667" fill="black" stroke="none" style="-webkit-tap-highlight-color: rgba(0, 0, 0, 0);"></use></marker><marker id="raphael-marker-endblock33-obj16" markerHeight="3" markerWidth="3" orient="auto" refX="1.5" refY="1.5" style="-webkit-tap-highlight-color: rgba(0, 0, 0, 0);"><use xlink:href="#raphael-marker-block" transform="rotate(180 1.5 1.5) scale(0.6,0.6)" stroke-width="1.6667" fill="black" stroke="none" style="-webkit-tap-highlight-color: rgba(0, 0, 0, 0);"></use></marker></defs><rect x="0" y="0" width="49.5625" height="36" rx="20" ry="20" fill="#ffffff" stroke="#000000" style="-webkit-tap-highlight-color: rgba(0, 0, 0, 0);" stroke-width="3" class="flowchart" id="s" transform="matrix(1,0,0,1,79.8359,6)"></rect><text x="10" y="18" text-anchor="start" font-family="&quot;Arial&quot;" font-size="14px" stroke="none" fill="#000000" style="-webkit-tap-highlight-color: rgba(0, 0, 0, 0); text-anchor: start; font-family: Arial; font-size: 14px;" id="st" class="flowchartt" transform="matrix(1,0,0,1,79.8359,6)" stroke-width="1"><tspan dy="5" style="-webkit-tap-highlight-color: rgba(0, 0, 0, 0);">Start</tspan></text><rect x="0" y="0" width="113.96875" height="36" rx="0" ry="0" fill="#ffffff" stroke="#000000" style="-webkit-tap-highlight-color: rgba(0, 0, 0, 0);" stroke-width="3" class="flowchart" id="op1" transform="matrix(1,0,0,1,47.6328,98)"></rect><text x="10" y="18" text-anchor="start" font-family="&quot;Arial&quot;" font-size="14px" stroke="none" fill="#000000" style="-webkit-tap-highlight-color: rgba(0, 0, 0, 0); text-anchor: start; font-family: Arial; font-size: 14px;" id="op1t" class="flowchartt" transform="matrix(1,0,0,1,47.6328,98)" stroke-width="1"><tspan dy="5" style="-webkit-tap-highlight-color: rgba(0, 0, 0, 0);">"My Operation"</tspan></text><rect x="0" y="0" width="197.234375" height="36" rx="0" ry="0" fill="#ffffff" stroke="#000000" style="-webkit-tap-highlight-color: rgba(0, 0, 0, 0);" stroke-width="3" class="flowchart" id="op2" transform="matrix(1,0,0,1,6,190)"></rect><text x="10" y="18" text-anchor="start" font-family="&quot;Arial&quot;" font-size="14px" stroke="none" fill="#000000" style="-webkit-tap-highlight-color: rgba(0, 0, 0, 0); text-anchor: start; font-family: Arial; font-size: 14px;" id="op2t" class="flowchartt" transform="matrix(1,0,0,1,6,190)" stroke-width="1"><tspan dy="5" style="-webkit-tap-highlight-color: rgba(0, 0, 0, 0);">"Python programming is fun"</tspan></text><rect x="0" y="0" width="183.03125" height="36" rx="0" ry="0" fill="#ffffff" stroke="#000000" style="-webkit-tap-highlight-color: rgba(0, 0, 0, 0);" stroke-width="3" class="flowchart" id="op3" transform="matrix(1,0,0,1,13.1016,282)"></rect><text x="10" y="18" text-anchor="start" font-family="&quot;Arial&quot;" font-size="14px" stroke="none" fill="#000000" style="-webkit-tap-highlight-color: rgba(0, 0, 0, 0); text-anchor: start; font-family: Arial; font-size: 14px;" id="op3t" class="flowchartt" transform="matrix(1,0,0,1,13.1016,282)" stroke-width="1"><tspan dy="5" style="-webkit-tap-highlight-color: rgba(0, 0, 0, 0);">"파이톤 프로그래밍은 즐겁다"</tspan></text><rect x="0" y="0" width="141.734375" height="36" rx="0" ry="0" fill="#ffffff" stroke="#000000" style="-webkit-tap-highlight-color: rgba(0, 0, 0, 0);" stroke-width="3" class="flowchart" id="op4" transform="matrix(1,0,0,1,33.75,374)"></rect><text x="10" y="18" text-anchor="start" font-family="&quot;Arial&quot;" font-size="14px" stroke="none" fill="#000000" style="-webkit-tap-highlight-color: rgba(0, 0, 0, 0); text-anchor: start; font-family: Arial; font-size: 14px;" id="op4t" class="flowchartt" transform="matrix(1,0,0,1,33.75,374)" stroke-width="1"><tspan dy="5" style="-webkit-tap-highlight-color: rgba(0, 0, 0, 0);">"Python 编程很有趣"</tspan><tspan dy="16.8" x="10" style="-webkit-tap-highlight-color: rgba(0, 0, 0, 0);"></tspan></text><rect x="0" y="0" width="44.90625" height="36" rx="20" ry="20" fill="#ffffff" stroke="#000000" style="-webkit-tap-highlight-color: rgba(0, 0, 0, 0);" stroke-width="3" class="flowchart" id="e" transform="matrix(1,0,0,1,82.1641,466)"></rect><text x="10" y="18" text-anchor="start" font-family="&quot;Arial&quot;" font-size="14px" stroke="none" fill="#000000" style="-webkit-tap-highlight-color: rgba(0, 0, 0, 0); text-anchor: start; font-family: Arial; font-size: 14px;" id="et" class="flowchartt" transform="matrix(1,0,0,1,82.1641,466)" stroke-width="1"><tspan dy="5" style="-webkit-tap-highlight-color: rgba(0, 0, 0, 0);">End</tspan></text><path fill="none" stroke="#000000" d="M104.6171875,42C104.6171875,42,104.6171875,80.20077085494995,104.6171875,93.50016031763516" stroke-width="3" marker-end="url(#raphael-marker-endblock33-obj12)" style="-webkit-tap-highlight-color: rgba(0, 0, 0, 0);"></path><path fill="none" stroke="#000000" d="M104.6171875,134C104.6171875,134,104.6171875,172.20077085494995,104.6171875,185.50016031763516" stroke-width="3" marker-end="url(#raphael-marker-endblock33-obj13)" style="-webkit-tap-highlight-color: rgba(0, 0, 0, 0);"></path><path fill="none" stroke="#000000" d="M104.6171875,226C104.6171875,226,104.6171875,264.20077085494995,104.6171875,277.50016031763516" stroke-width="3" marker-end="url(#raphael-marker-endblock33-obj14)" style="-webkit-tap-highlight-color: rgba(0, 0, 0, 0);"></path><path fill="none" stroke="#000000" d="M104.6171875,318C104.6171875,318,104.6171875,356.20077085494995,104.6171875,369.50016031763516" stroke-width="3" marker-end="url(#raphael-marker-endblock33-obj15)" style="-webkit-tap-highlight-color: rgba(0, 0, 0, 0);"></path><path fill="none" stroke="#000000" d="M104.6171875,410C104.6171875,410,104.6171875,448.20077085494995,104.6171875,461.50016031763516" stroke-width="3" marker-end="url(#raphael-marker-endblock33-obj16)" style="-webkit-tap-highlight-color: rgba(0, 0, 0, 0);"></path></svg>